<?xml version="1.0" encoding="utf-8"?>
<!-- Generator: Adobe Illustrator 17.0.0, SVG Export Plug-In . SVG Version: 6.00 Build 0)  -->
<!DOCTYPE svg PUBLIC "-//W3C//DTD SVG 1.1//EN" "http://www.w3.org/Graphics/SVG/1.1/DTD/svg11.dtd">
<svg version="1.1" id="Layer_1" xmlns="http://www.w3.org/2000/svg" xmlns:xlink="http://www.w3.org/1999/xlink" x="0px" y="0px"
	 width="317.63px" height="187.69px" viewBox="0 0 317.63 187.69" enable-background="new 0 0 317.63 187.69" xml:space="preserve">
<g>
	<g>
		<defs>
			<rect id="SVGID_1_" x="4.999" y="1.499" width="307.631" height="184.692"/>
		</defs>
		<clipPath id="SVGID_2_">
			<use xlink:href="#SVGID_1_"  overflow="visible"/>
		</clipPath>
		<path clip-path="url(#SVGID_2_)" fill="none" d="M158.468,91.642h0.504c40.351-0.439,34.496-54.324,34.496-54.324
			C191.832,1.309,161.68,1.626,158.72,1.752c-2.956-0.126-33.048-0.443-34.748,35.565C123.972,37.379,118.12,91.264,158.468,91.642
			L158.468,91.642z M158.468,91.642"/>
	</g>
	<path fill="none" d="M252.891,110.023h0.378c32.418-0.314,27.761-43.687,27.761-43.687c-1.322-28.957-25.558-28.705-27.949-28.64
		c-2.394-0.127-26.627-0.317-27.949,28.64C225.133,66.398,220.412,109.709,252.891,110.023L252.891,110.023z M252.891,110.023"/>
	<path fill="none" d="M312.38,153.96c-0.253-9.316-2.078-15.799-11.582-21.78c-12.654-7.93-26.818-14.794-26.818-14.794
		l-11.268,35.63l-6.547-18.697c11.52-16.112-0.818-16.932-3.022-16.932h-0.126c-2.204,0-14.541,0.821-3.022,16.932l-6.547,18.633
		l-11.268-35.627c0,0-4.026,1.951-9.695,4.973c-1.321-1.069-2.769-2.143-4.404-3.147c-15.737-9.885-33.301-18.445-33.301-18.445
		l-13.975,44.255l-8.183-23.231c14.352-20.015-1.008-21.023-3.777-21.085h-0.127c-2.769,0-18.128,1.005-3.777,21.085l-8.183,23.231
		l-13.976-44.255c0,0-17.563,8.56-33.3,18.445c-1.696,1.07-3.147,2.139-4.469,3.209c-5.726-3.083-9.817-5.034-9.817-5.034
		L73.93,152.952l-6.547-18.633c11.52-16.112-0.821-16.932-3.022-16.932h-0.126c-2.204,0-14.541,0.821-3.022,16.932l-6.547,18.633
		l-11.268-35.627c0,0-14.164,6.861-26.818,14.794c-9.568,5.978-11.33,12.463-11.582,21.78v31.536h307.442L312.38,153.96z
		 M312.38,153.96"/>
	<path fill="none" d="M63.919,110.023h0.378c32.483-0.314,27.762-43.687,27.762-43.687C90.736,37.379,66.5,37.632,64.109,37.696
		c-2.394-0.127-26.627-0.317-27.949,28.64C36.161,66.398,31.501,109.709,63.919,110.023L63.919,110.023z M63.919,110.023"/>
</g>
</svg>
