<?xml version="1.0" encoding="utf-8"?>
<!-- Generator: Adobe Illustrator 17.0.0, SVG Export Plug-In . SVG Version: 6.00 Build 0)  -->
<!DOCTYPE svg PUBLIC "-//W3C//DTD SVG 1.1//EN" "http://www.w3.org/Graphics/SVG/1.1/DTD/svg11.dtd">
<svg version="1.1" id="Capa_1" xmlns="http://www.w3.org/2000/svg" xmlns:xlink="http://www.w3.org/1999/xlink" x="0px" y="0px"
	 width="512px" height="512px" viewBox="0 0 512 512" xml:space="preserve">
<g>
	<path id="Facebook" fill="#BEA67C" d="M188.177,99.159c0,12.903,0,70.492,0,70.492h-51.645v86.198h51.645v256.15h106.089V255.856
		h71.191c0,0,6.667-41.331,9.899-86.523c-9.266,0-80.689,0-80.689,0s0-50.147,0-58.937c0-8.809,11.567-20.658,22.999-20.658
		c11.411,0,35.495,0,57.801,0c0-11.736,0-52.286,0-89.737c-29.779,0-63.657,0-78.59,0C185.555-0.005,188.177,86.279,188.177,99.159z
		"/>
</g>
</svg>
