<?xml version="1.0" encoding="utf-8"?>
<!-- Generator: Adobe Illustrator 17.0.0, SVG Export Plug-In . SVG Version: 6.00 Build 0)  -->
<!DOCTYPE svg PUBLIC "-//W3C//DTD SVG 1.1//EN" "http://www.w3.org/Graphics/SVG/1.1/DTD/svg11.dtd">
<svg version="1.1" id="Layer_1" xmlns="http://www.w3.org/2000/svg" xmlns:xlink="http://www.w3.org/1999/xlink" x="0px" y="0px"
	 width="222.191px" height="37.566px" viewBox="0 0 222.191 37.566" enable-background="new 0 0 222.191 37.566"
	 xml:space="preserve">
<g id="Layer_1_1_">
	<g>
		<path fill="#FFFFFF" d="M20.733,30.006L16.522,13.52l-4.175,16.486H6.911L0.036,5.997h5.723l4.211,17.35l4.571-17.35h3.996
			l4.536,17.35l4.211-17.35h5.724l-6.84,24.009H20.733z"/>
		<path fill="#FFFFFF" d="M69.393,16.781c-0.57-6.59-5.66-11.18-12.48-11.18c-6.85,0-11.94,4.59-12.51,11.18
			c-0.03,0.4-0.05,0.82-0.05,1.24c0,0.96,0.09,1.88,0.27,2.76c1.17,5.75,5.98,9.66,12.29,9.66c6.28,0,11.09-3.91,12.26-9.66
			c0.18-0.88,0.27-1.8,0.27-2.76C69.443,17.601,69.423,17.181,69.393,16.781z M56.913,25.901c-3.48,0-5.98-2.08-6.9-5.12
			c-0.26-0.85-0.4-1.78-0.4-2.76c0-0.43,0.03-0.84,0.08-1.24c0.47-3.87,3.18-6.64,7.22-6.64c4.01,0,6.72,2.77,7.19,6.64
			c0.05,0.4,0.08,0.81,0.08,1.24c0,0.98-0.14,1.91-0.4,2.76C62.863,23.821,60.373,25.901,56.913,25.901z"/>
		<path fill="#FFFFFF" d="M107.733,16.781c-0.57-6.59-5.66-11.18-12.48-11.18c-6.85,0-11.94,4.59-12.51,11.18
			c-0.03,0.4-0.05,0.82-0.05,1.24c0,0.96,0.09,1.88,0.27,2.76c1.17,5.75,5.98,9.66,12.29,9.66c6.28,0,11.09-3.91,12.26-9.66
			c0.18-0.88,0.27-1.8,0.27-2.76C107.783,17.601,107.763,17.181,107.733,16.781z M95.253,25.901c-3.48,0-5.98-2.08-6.91-5.12
			c-0.26-0.85-0.4-1.78-0.4-2.76c0-0.43,0.03-0.84,0.08-1.24c0.47-3.87,3.19-6.64,7.23-6.64c4.01,0,6.72,2.77,7.19,6.64
			c0.05,0.4,0.08,0.81,0.08,1.24c0,0.98-0.14,1.91-0.4,2.76C101.203,23.821,98.713,25.901,95.253,25.901z"/>
		<path fill="#FFFFFF" d="M122.184,30.006V5.997h9.467c7.522,0,12.742,4.787,12.742,11.986c0,7.271-5.22,12.022-12.706,12.022
			L122.184,30.006L122.184,30.006z M139.173,17.983c0-4.211-2.592-7.487-7.486-7.487h-4.392v15.01h4.355
			C136.402,25.506,139.173,22.087,139.173,17.983z"/>
		<path fill="#FFFFFF" d="M158.832,30.006V5.997h16.989v4.499h-11.878v5.04h11.626v4.5h-11.626v5.471h11.878v4.5L158.832,30.006
			L158.832,30.006z"/>
		<path fill="#FFFFFF" d="M204.19,30.006l-4.716-8.531h-3.743v8.531h-5.111V5.997h11.23c5.003,0,8.099,3.275,8.099,7.739
			c0,4.211-2.699,6.515-5.291,7.127l5.436,9.143C210.094,30.006,204.19,30.006,204.19,30.006z M204.694,13.7
			c0-1.979-1.548-3.204-3.563-3.204h-5.399v6.479h5.399C203.146,16.976,204.694,15.751,204.694,13.7z"/>
	</g>
</g>
<g id="Layer_2">
	<path fill="#BEA67C" d="M107.783,18.021c0,0.96-0.09,1.88-0.27,2.76h-62.89c-0.18-0.88-0.27-1.8-0.27-2.76
		c0-0.42,0.02-0.84,0.05-1.24h63.33C107.763,17.181,107.783,17.601,107.783,18.021z"/>
</g>
</svg>
