<?xml version="1.0" encoding="utf-8"?>
<!-- Generator: Adobe Illustrator 17.0.0, SVG Export Plug-In . SVG Version: 6.00 Build 0)  -->
<!DOCTYPE svg PUBLIC "-//W3C//DTD SVG 1.1//EN" "http://www.w3.org/Graphics/SVG/1.1/DTD/svg11.dtd">
<svg version="1.1" id="Layer_1" xmlns="http://www.w3.org/2000/svg" xmlns:xlink="http://www.w3.org/1999/xlink" x="0px" y="0px"
	 width="396.926px" height="396.921px" viewBox="0 0 396.926 396.921" enable-background="new 0 0 396.926 396.921"
	 xml:space="preserve">
<g opacity="0.8">
	<path fill="#BEA67C" d="M396.926,198.464C396.926,88.847,308.07,0,198.465,0C88.855,0,0,88.847,0,198.464
		c0,109.602,88.855,198.457,198.465,198.457C308.07,396.921,396.926,308.066,396.926,198.464L396.926,198.464z M396.926,198.464"/>
	<path fill="#FFFFFF" d="M277.928,190.74l-105.755-64.934c-2.887-1.774-6.686-1.851-9.64-0.195c-3.011,1.682-4.879,4.87-4.879,8.318
		v129.358c0,3.441,1.863,6.626,4.861,8.315c1.423,0.796,3.038,1.219,4.673,1.219c1.75,0,3.465-0.481,4.958-1.39l105.752-64.424
		c2.816-1.714,4.569-4.828,4.572-8.126C282.476,195.586,280.738,192.463,277.928,190.74L277.928,190.74z M277.928,190.74"/>
</g>
</svg>
