<?xml version="1.0" encoding="utf-8"?>
<!-- Generator: Adobe Illustrator 17.0.0, SVG Export Plug-In . SVG Version: 6.00 Build 0)  -->
<!DOCTYPE svg PUBLIC "-//W3C//DTD SVG 1.1//EN" "http://www.w3.org/Graphics/SVG/1.1/DTD/svg11.dtd">
<svg version="1.1" id="Layer_1" xmlns="http://www.w3.org/2000/svg" xmlns:xlink="http://www.w3.org/1999/xlink" x="0px" y="0px"
	 width="32.005px" height="33px" viewBox="0 0 32.005 33" enable-background="new 0 0 32.005 33" xml:space="preserve">
<g>
	<g>
		<defs>
			<rect id="SVGID_1_" width="32" height="33"/>
		</defs>
		<clipPath id="SVGID_2_">
			<use xlink:href="#SVGID_1_"  overflow="visible"/>
		</clipPath>
		<path clip-path="url(#SVGID_2_)" fill="#FFFFFF" d="M29.859,8.999C25.441,1.346,15.656-1.279,8.004,3.143
			C0.352,7.557-2.273,17.346,2.148,24.999c4.414,7.652,14.204,10.273,21.856,5.855C31.656,26.436,34.277,16.651,29.859,8.999
			L29.859,8.999z M22.402,28.081c-6.121,3.535-13.949,1.437-17.484-4.684C1.383,17.276,3.48,9.448,9.602,5.913
			c6.121-3.535,13.953-1.438,17.484,4.683C30.621,16.718,28.523,24.546,22.402,28.081L22.402,28.081z M21.762,16.346l-8.379-4.886
			c-0.762-0.446-1.379-0.09-1.375,0.793l0.043,9.699c0.004,0.887,0.629,1.246,1.394,0.801l8.313-4.801
			C22.523,17.511,22.527,16.792,21.762,16.346L21.762,16.346z M21.762,16.346"/>
	</g>
</g>
</svg>
