<?xml version="1.0" encoding="utf-8"?>
<!-- Generator: Adobe Illustrator 17.0.0, SVG Export Plug-In . SVG Version: 6.00 Build 0)  -->
<!DOCTYPE svg PUBLIC "-//W3C//DTD SVG 1.1//EN" "http://www.w3.org/Graphics/SVG/1.1/DTD/svg11.dtd">
<svg version="1.1" id="Capa_1" xmlns="http://www.w3.org/2000/svg" xmlns:xlink="http://www.w3.org/1999/xlink" x="0px" y="0px"
	 width="512px" height="512px" viewBox="0 0 512 512" enable-background="new 0 0 512 512" xml:space="preserve">
<g>
	<path fill="#AD9D84" d="M477.675,127.498c-22.893-39.22-53.946-70.272-93.166-93.164C345.28,11.443,302.458,0,256.008,0
		c-46.445,0-89.281,11.443-128.502,34.334C88.283,57.222,57.23,88.275,34.337,127.498C11.443,166.723,0,209.559,0,256.001
		c0,46.444,11.446,89.273,34.334,128.501c22.892,39.22,53.945,70.272,93.168,93.166c39.225,22.889,82.057,34.334,128.502,34.334
		s89.281-11.444,128.504-34.334c39.221-22.886,70.272-53.947,93.163-93.166c22.887-39.224,34.329-82.059,34.329-128.501
		C512,209.554,500.557,166.717,477.675,127.498z M422.342,302.994l-34.002,34.009c-4.228,4.219-9.225,6.333-14.999,6.333
		c-5.777,0-10.783-2.113-14.999-6.333L256.003,234.665L153.674,337.003c-4.222,4.219-9.221,6.333-14.999,6.333
		c-5.779,0-10.78-2.113-15.003-6.333l-33.998-34.009c-4.223-4.211-6.335-9.221-6.335-14.999c0-5.77,2.112-10.773,6.335-15
		l151.335-151.33c4.223-4.223,9.221-6.333,14.999-6.333c5.778,0,10.786,2.11,14.998,6.333l151.336,151.33
		c4.218,4.228,6.333,9.229,6.333,15C428.675,293.771,426.565,298.781,422.342,302.994z"/>
</g>
</svg>
